<svg id="Layer_1" data-name="Layer 1" xmlns="http://www.w3.org/2000/svg" viewBox="0 0 206.85 169.04"><path d="M231.29,478.45c-.43-4.23-3.54-5.73-4.88-5.58s-2.12,1.4-4.55,1.68a2.41,2.41,0,0,1-2.84-2.13,2.87,2.87,0,0,1,2.47-3.16c2-.23,2,.24,3.73.05,2-.22,3.39-2.53,3-6.3-.46-4.57-5-8.3-13.54-7.26-9.28,1.13-18.07,8-16.92,15.31.72,4.78,3.6,5.76,5.23,5.53a2.29,2.29,0,0,0,2-2.34,3,3,0,0,1,2.52-3.35,2.51,2.51,0,0,1,2.86,2.32c.52,4-2.69,6.64-6.72,7.22-5,.72-9.54-2.32-10.49-8.25-1.72-10.35,9.79-18.9,21.09-20.25,13.31-1.61,19.51,4.35,20,9.89a9.89,9.89,0,0,1-3.21,8.39c2.21.48,5.89,3,6.38,8.34.65,7.37-4.57,12.27-12.3,13.15a17.54,17.54,0,0,1-8.58-1.38,13.73,13.73,0,0,1-8.46,4.19c-3.89.54-7.79-1.34-8.37-5.08-.45-2.93,2.26-6.06,6.23-6.62a14.94,14.94,0,0,1,8,1.57,15,15,0,0,0-.14-3c-.6-4.68-1.84-6.64-2.61-12.47-.64-4.85,1.29-10.39,5.23-10.87,2.24-.27,3.62.75,3.77,2.08a2.52,2.52,0,0,1-2,2.75c-1.4.35-1.71,1.91-1.52,3.47.74,6.07,2,8.44,2.61,13.42a15.44,15.44,0,0,1-.62,6.88c2.05.92,3.93,1.58,5.66,1.38C229.13,487.5,231.82,483.78,231.29,478.45Zm-18.58,10c-2.4-1.27-4.44-2.34-6.17-2.09A2.44,2.44,0,0,0,204.3,489c.21,1.44,2,1.94,4,1.67A6.4,6.4,0,0,0,212.71,488.47Z" transform="translate(-192.95 -335.47)" style="fill:#445a6f"/><path d="M261.49,480.05c.55-.9.95-1.28,1.62-1.31a1.37,1.37,0,0,1,1.45,1.27,3,3,0,0,1-.74,1.9,9.31,9.31,0,0,1-7.73,4.42,13.59,13.59,0,0,1-2.64-.12,8.12,8.12,0,0,1-5.09,2.41c-4.33.33-8.2-1.54-8.68-6.82a9.62,9.62,0,0,1,2.46-7.46,6.54,6.54,0,0,1,6.14-6.16c5.28-.38,8,4,8.33,9.18a12.25,12.25,0,0,1-1.14,5.86C259.24,483,260.2,481.88,261.49,480.05Zm-12,4.81a14.42,14.42,0,0,1-5.92-5.44,8.54,8.54,0,0,0,.05,1.34c.25,3,1.92,5.1,3.95,4.94A3.13,3.13,0,0,0,249.52,484.86Zm1.74-3.28a11.58,11.58,0,0,0,.29-3.7c-.31-4.36-1.42-7-3-6.91-.74,0-1.62,1.35-1.46,3.38A10.41,10.41,0,0,0,251.26,481.58Z" transform="translate(-192.95 -335.47)" style="fill:#445a6f"/><path d="M283.34,479.21c.58-.89,1-1.25,1.66-1.26a1.38,1.38,0,0,1,1.41,1.31,3,3,0,0,1-.81,1.88,9.3,9.3,0,0,1-7.86,4.16,12.73,12.73,0,0,1-2.64-.21,8.06,8.06,0,0,1-5.16,2.24c-4.34.19-8.14-1.81-8.45-7.1a9.58,9.58,0,0,1,2.71-7.38,6.54,6.54,0,0,1,6.34-6c5.29-.21,7.87,4.22,8,9.46a12.14,12.14,0,0,1-1.33,5.81C281,482.05,282,481,283.34,479.21Zm-12.12,4.4a14.46,14.46,0,0,1-5.74-5.63,12,12,0,0,0,0,1.34c.15,3,1.75,5.16,3.78,5.07A3.16,3.16,0,0,0,271.22,483.61Zm1.85-3.22a11.57,11.57,0,0,0,.41-3.69c-.16-4.37-1.18-7.07-2.77-7-.73,0-1.66,1.29-1.57,3.33A10.41,10.41,0,0,0,273.07,480.39Z" transform="translate(-192.95 -335.47)" style="fill:#445a6f"/><path d="M303.57,479.08c.61-.87,1-1.22,1.7-1.21a1.38,1.38,0,0,1,1.37,1.36,3,3,0,0,1-.86,1.85c-1.78,2.31-4.06,5-7.93,5-4.34,0-7.13-4.39-10.1-5.87,0,1.29.4,2.68.41,3.84a2.8,2.8,0,0,1-2.94,2.67c-1.78,0-2.4-.88-2.45-3,0-.47,0-1.69.05-3.27.05-2.85.14-7,.07-10.14-.27-11.64,2.29-17.83,7.82-17.89,2,0,4,1.83,4,4.86,0,3.67-2.07,8.75-4.28,12.67,1.51-1.76,3.34-3.29,5.24-3.29A4,4,0,0,1,300,470.9c0,3.38-3.36,6.8-6.84,7.93a8.6,8.6,0,0,0,6.26,3.31C300.79,482.14,302.17,480.81,303.57,479.08Zm-16.71-9.14c1.94-3.94,4.24-9.56,4.21-12.7,0-.82-.32-1.4-1-1.39C288.56,455.87,286.81,460.09,286.86,469.94Zm2,6.72c2.17,0,6-2.44,6-5.64,0-.64-.24-.87-.55-.87C293,470.15,290.37,474.08,288.9,476.66Z" transform="translate(-192.95 -335.47)" style="fill:#445a6f"/><path d="M318.11,484.15a7.12,7.12,0,0,1-6,2.64c-2.73-.07-4.74-1.49-4.7-4s2.22-3.58,4.51-3.52a10.52,10.52,0,0,1,2.1.39c-.25-2-1.73-3.42-3.52-4.62-1.93,2.58-3.89,4.95-4.87,6.27-.79,1-1.39,1.33-2.11,1.32a1.3,1.3,0,0,1-1.25-1.29,4.75,4.75,0,0,1,1.28-2.26c.85-1.1,2.75-3.29,4.42-5.6-2.1-1.37-3.91-3-3.89-5.7,0-3,2.64-5.34,6-5.27,2.6.05,5,1.68,4.9,4.36,0,1.17-.88,2.89-2.08,4.79,3.07,1.81,6.76,3.92,6.62,8.17a6.11,6.11,0,0,1-.23,1.45,6.58,6.58,0,0,0,1.49.16,4.33,4.33,0,0,0,4.11-1.82c.64-.85,1.07-1.18,1.68-1.15a1.39,1.39,0,0,1,1.38,1.4,3,3,0,0,1-.93,1.83,7.69,7.69,0,0,1-6.29,2.83A13.32,13.32,0,0,1,318.11,484.15Zm-7.74-14.24a6.81,6.81,0,0,0,1.1-2.83,1.17,1.17,0,0,0-1.2-1.36,1.3,1.3,0,0,0-1.5,1.31A3.74,3.74,0,0,0,310.37,469.91Zm3.36,12.66a5.08,5.08,0,0,0-1.85-.51.87.87,0,0,0-.86.91.93.93,0,0,0,1,.84A1.77,1.77,0,0,0,313.73,482.57Z" transform="translate(-192.95 -335.47)" style="fill:#445a6f"/><path d="M349.54,481.12c.74-.82,1.19-1.14,1.79-1.09a1.4,1.4,0,0,1,1.33,1.46,3,3,0,0,1-1,1.79c-1.93,2.17-4.61,5.11-8.47,4.84s-6.32-3-6.14-6.13c.18-3,.79-5,1-7.76a.84.84,0,0,0-.79-1c-1.42-.09-5.89,7.25-6.85,11.11s-1.83,4.46-3.67,4.38c-1.6-.08-2.38-1.33-2.3-3.19.48-9.94.54-34,10.31-33.51,2.45.14,4.79,2.09,4.55,6-.4,6-6.44,13.45-9.25,16.7-.12,1.22-.31,2.67-.49,3.88,2.12-4.15,6.2-10.36,10.62-10.07,2.15.14,3.75,1.94,3.53,5-.18,2.56-.79,5.14-1,8.05-.11,1.68.66,2.73,2.15,2.84C346.14,484.53,348.08,482.75,349.54,481.12Zm-19-11.33c2.14-3.8,4.74-9.2,4.92-12.28,0-.82-.05-1.46-.92-1.51C333,455.92,331.35,463.59,330.5,469.79Z" transform="translate(-192.95 -335.47)" style="fill:#445a6f"/><path d="M365,482.53c.75-.8,1.15-1.11,1.81-1a1.39,1.39,0,0,1,1.3,1.49,3,3,0,0,1-1,1.76c-2.05,2.13-5.55,5.32-10.94,4.83-4.8-.44-9.16-3.52-8.71-9.5.47-6.45,5.67-11.6,10.4-11.17,3.19.29,4.86,2.22,4.56,5.23-.39,3.76-5.86,7.62-9.34,8.85.74,2.69,3.52,3.12,4.42,3.2C361.06,486.52,363.47,484.13,365,482.53Zm-11.84-3c2.34-1.14,4.14-2.91,4.38-5.52.09-1-.21-1.66-.76-1.7C355.71,472.22,353.55,476,353.13,479.54Z" transform="translate(-192.95 -335.47)" style="fill:#445a6f"/><path d="M365.07,476.86c1.52-15.07,7-20.42,11.33-19.91,2.25.26,4.47,2.24,4,6.4-.76,5.95-6.52,14.69-10.22,19.21.73,2.19,2.93,4.55,5.07,4.81s4.05-1.44,5.65-3c.71-.79,1.18-1.08,1.84-1a1.38,1.38,0,0,1,1.2,1.51,3,3,0,0,1-1.08,1.74c-2,2.08-4.86,4.88-9.12,4.37C369.08,490.45,364.16,486,365.07,476.86Zm4.51,1.83c2.4-4.13,5.88-11.12,6.56-16.84.09-.76-.24-1.15-.68-1.2C373.15,460.39,370.39,472.33,369.58,478.69Z" transform="translate(-192.95 -335.47)" style="fill:#445a6f"/><path d="M396.7,486.61c.79-.77,1.26-1.05,1.86-.95a1.39,1.39,0,0,1,1.22,1.55c-.38,2.35-5.48,5.09-8,5.19,0,0-.07,2.11-.18,2.86-1,6.51-4.86,9.64-8,9.21-4.17-.57-6.48-4.25-5.71-10.5.6-4.8,1.65-10.71,2.24-15.33,1.78-14.4,6.4-20.34,11.84-19.58,3.48.49,4.67,2.79,4.14,6.36-1.34,8.68-11.2,16.23-11.17,16.25s-1.19,7.48-1.81,12.16c-.73,5.43,0,7,1.18,7.15,1.4.19,2.79-2.08,3.42-6.52a20.64,20.64,0,0,0,.23-2.91c-1.92-.5-3.41-2-3.23-3.33a2.15,2.15,0,0,1,2.26-1.92c2.69.37,2.45,2.93,4.83,3.28C393.05,489.77,395.12,488.13,396.7,486.61Zm-11.3-9.34c2.63-3.17,6.41-8.7,6.92-12.27.17-1.21.06-2.17-.81-2.29C390.21,462.53,388,465,385.4,477.27Z" transform="translate(-192.95 -335.47)" style="fill:#445a6f"/><rect x="289.29" y="354.84" width="16.7" height="150" transform="translate(534.53 -203.27) rotate(90)" style="fill:#d9822b"/><rect x="295.55" y="361.1" width="4.17" height="150" transform="translate(540.79 -197) rotate(90)" style="fill:#955a24"/><rect x="350.12" y="434.01" width="8.35" height="16.7" transform="translate(603.71 -247.4) rotate(90)" style="fill:#955a24"/><rect x="354.29" y="438.19" width="8.35" height="8.35" transform="translate(607.88 -251.57) rotate(90)" style="fill:#d9822b"/><rect x="236.81" y="434.01" width="8.35" height="16.7" transform="translate(490.4 -134.09) rotate(90)" style="fill:#955a24"/><rect x="240.99" y="438.19" width="8.35" height="8.35" transform="translate(494.58 -138.27) rotate(90)" style="fill:#d9822b"/><rect x="207.03" y="379.19" width="67.91" height="16.7" transform="translate(435.58 -188.92) rotate(90)" style="fill:#f7d155"/><rect x="200.77" y="385.45" width="67.91" height="4.17" transform="translate(429.32 -182.66) rotate(90)" style="fill:#9e8336"/><rect x="213.29" y="385.45" width="67.91" height="4.17" transform="translate(441.84 -195.18) rotate(90)" style="fill:#fee88c"/><rect x="320.33" y="379.19" width="67.91" height="16.7" transform="translate(548.88 -302.22) rotate(90)" style="fill:#6d61ab"/><rect x="314.07" y="385.45" width="67.91" height="4.17" transform="translate(542.62 -295.96) rotate(90)" style="fill:#413c68"/><rect x="326.59" y="385.45" width="67.91" height="4.17" transform="translate(555.14 -308.48) rotate(90)" style="fill:#978ec4"/><rect x="220.57" y="367.39" width="82.87" height="25.33" transform="translate(449.11 -217.41) rotate(90)" style="fill:#eb4c47"/><rect x="211.07" y="376.89" width="82.87" height="6.33" transform="translate(439.61 -207.91) rotate(90)" style="fill:#8f2d2e"/><rect x="230.07" y="376.89" width="82.87" height="6.33" transform="translate(458.61 -226.91) rotate(90)" style="fill:#ef8b8b"/><rect x="301.13" y="376.68" width="76.96" height="12.67" transform="translate(529.68 -292.06) rotate(90)" style="fill:#be2026"/><rect x="296.38" y="381.43" width="76.96" height="3.17" transform="translate(524.93 -287.31) rotate(90)" style="fill:#70131a"/><rect x="305.88" y="381.43" width="76.96" height="3.17" transform="translate(534.43 -296.81) rotate(90)" style="fill:#e56161"/><rect x="244.85" y="374.36" width="76.96" height="17.32" transform="translate(473.4 -235.78) rotate(90)" style="fill:#47b780"/><rect x="238.35" y="380.85" width="76.96" height="4.33" transform="translate(466.9 -229.29) rotate(90)" style="fill:#2f7752"/><rect x="251.34" y="380.85" width="76.96" height="4.33" transform="translate(479.89 -242.27) rotate(90)" style="fill:#7cc89a"/><rect x="269.89" y="369.78" width="84.66" height="17.32" transform="translate(385.53 -369.1) rotate(72.39)" style="fill:#0eb4cf"/><rect x="276.08" y="374.31" width="84.66" height="4.33" transform="translate(387.97 -376.37) rotate(72.39)" style="fill:#63c9d7"/><rect x="263.7" y="378.23" width="84.66" height="4.33" transform="translate(383.08 -361.83) rotate(72.39)" style="fill:#0a6872"/></svg>